<?xml version="1.0" standalone="no"?>
<!DOCTYPE svg PUBLIC "-//W3C//DTD SVG 20010904//EN"
 "http://www.w3.org/TR/2001/REC-SVG-20010904/DTD/svg10.dtd">
<svg version="1.0" xmlns="http://www.w3.org/2000/svg"
 width="100.000000pt" height="100.000000pt" viewBox="0 0 100.000000 100.000000"
 preserveAspectRatio="xMidYMid meet">
<metadata>
Created by potrace 1.14, written by Peter Selinger 2001-2017
</metadata>
<g transform="translate(0.000000,100.000000) scale(0.100000,-0.100000)"
fill="#000000" stroke="none">
<path d="M0 500 l0 -500 500 0 500 0 0 500 0 500 -500 0 -500 0 0 -500z m797
113 c22 -15 53 -80 53 -113 0 -18 -7 -20 -90 -20 -49 0 -90 -4 -90 -8 0 -13
24 -39 41 -45 9 -3 29 1 45 9 15 8 44 14 64 12 l35 -3 -36 -38 c-33 -33 -42
-37 -88 -37 -29 0 -66 7 -82 16 -53 27 -74 110 -45 179 27 65 128 90 193 48z
m-557 0 c0 -15 1 -15 18 0 26 24 87 22 110 -3 l19 -20 18 20 c28 31 97 28 124
-6 18 -23 21 -41 21 -130 l0 -104 -40 0 -40 0 0 84 c0 64 -4 88 -16 100 -8 9
-19 16 -24 16 -5 0 -16 -7 -24 -16 -12 -12 -16 -36 -16 -100 l0 -84 -40 0 -40
0 0 89 c0 69 -4 92 -16 102 -11 9 -20 10 -32 2 -14 -8 -18 -29 -20 -102 l-3
-91 -39 0 -40 0 0 130 0 130 40 0 c31 0 40 -4 40 -17z"/>
<path d="M704 570 c-12 -5 -24 -15 -27 -24 -5 -13 2 -16 44 -16 34 0 49 4 47
12 -7 21 -42 36 -64 28z"/>
</g>
</svg>
