<svg width="57" height="56" viewBox="0 0 57 56" fill="none" xmlns="http://www.w3.org/2000/svg">
<rect x="0.5" width="56" height="56" rx="16" fill="#F5F3FE"/>
<path d="M20.5 21L21.0303 20.4697C20.8158 20.2552 20.4932 20.191 20.213 20.3071C19.9327 20.4232 19.75 20.6967 19.75 21H20.5ZM20.5 32H19.75C19.75 32.4142 20.0858 32.75 20.5 32.75V32ZM36.5 32V32.75C36.9142 32.75 37.25 32.4142 37.25 32H36.5ZM36.5 21H37.25C37.25 20.6967 37.0673 20.4232 36.787 20.3071C36.5068 20.191 36.1842 20.2552 35.9697 20.4697L36.5 21ZM32.5 25L31.9697 25.5303C32.2626 25.8232 32.7374 25.8232 33.0303 25.5303L32.5 25ZM24.5 25L23.9697 25.5303C24.2626 25.8232 24.7374 25.8232 25.0303 25.5303L24.5 25ZM28.5 21L29.0303 20.4697C28.7374 20.1768 28.2626 20.1768 27.9697 20.4697L28.5 21ZM20.5 34.25C20.0858 34.25 19.75 34.5858 19.75 35C19.75 35.4142 20.0858 35.75 20.5 35.75V34.25ZM36.5 35.75C36.9142 35.75 37.25 35.4142 37.25 35C37.25 34.5858 36.9142 34.25 36.5 34.25V35.75ZM19.75 21V32H21.25V21H19.75ZM20.5 32.75H36.5V31.25H20.5V32.75ZM37.25 32V21H35.75V32H37.25ZM35.9697 20.4697L31.9697 24.4697L33.0303 25.5303L37.0303 21.5303L35.9697 20.4697ZM19.9697 21.5303L23.9697 25.5303L25.0303 24.4697L21.0303 20.4697L19.9697 21.5303ZM25.0303 25.5303L29.0303 21.5303L27.9697 20.4697L23.9697 24.4697L25.0303 25.5303ZM27.9697 21.5303L31.9697 25.5303L33.0303 24.4697L29.0303 20.4697L27.9697 21.5303ZM20.5 35.75H36.5V34.25H20.5V35.75Z" fill="#7E74F1"/>
</svg>
