<svg width="56" height="56" viewBox="0 0 56 56" fill="none" xmlns="http://www.w3.org/2000/svg">
<rect width="56" height="56" rx="16" fill="#F5F3FE"/>
<path d="M27.25 37C27.25 37.4142 27.5858 37.75 28 37.75C28.4142 37.75 28.75 37.4142 28.75 37H27.25ZM27.25 29V37H28.75V29H27.25ZM32.25 24C32.25 26.3472 30.3472 28.25 28 28.25V29.75C31.1756 29.75 33.75 27.1756 33.75 24H32.25ZM28 28.25C25.6528 28.25 23.75 26.3472 23.75 24H22.25C22.25 27.1756 24.8244 29.75 28 29.75V28.25ZM23.75 24C23.75 21.6528 25.6528 19.75 28 19.75V18.25C24.8244 18.25 22.25 20.8244 22.25 24H23.75ZM28 19.75C30.3472 19.75 32.25 21.6528 32.25 24H33.75C33.75 20.8244 31.1756 18.25 28 18.25V19.75Z" fill="#7E74F1"/>
</svg>
