<svg width="57" height="56" viewBox="0 0 57 56" fill="none" xmlns="http://www.w3.org/2000/svg">
<rect x="0.5" width="56" height="56" rx="16" fill="#F5F3FE"/>
<path d="M36.75 28C36.75 32.5563 33.0563 36.25 28.5 36.25V37.75C33.8848 37.75 38.25 33.3848 38.25 28H36.75ZM28.5 36.25C23.9437 36.25 20.25 32.5563 20.25 28H18.75C18.75 33.3848 23.1152 37.75 28.5 37.75V36.25ZM20.25 28C20.25 23.4437 23.9437 19.75 28.5 19.75V18.25C23.1152 18.25 18.75 22.6152 18.75 28H20.25ZM28.5 19.75C33.0563 19.75 36.75 23.4437 36.75 28H38.25C38.25 22.6152 33.8848 18.25 28.5 18.25V19.75ZM28.5 19C28.05 19.6 28.0497 19.5998 28.0495 19.5996C28.0494 19.5996 28.0492 19.5994 28.0491 19.5993C28.0488 19.5991 28.0486 19.599 28.0485 19.5988C28.0482 19.5986 28.0482 19.5986 28.0484 19.5988C28.0488 19.5991 28.0501 19.6001 28.0523 19.6018C28.0568 19.6053 28.0649 19.6116 28.0764 19.6208C28.0994 19.6392 28.1358 19.6689 28.1838 19.7101C28.2798 19.7924 28.4218 19.92 28.5947 20.0928C28.9407 20.4388 29.4077 20.9636 29.876 21.666C30.8106 23.0681 31.75 25.1757 31.75 28H33.25C33.25 24.8243 32.1894 22.4319 31.124 20.834C30.5923 20.0364 30.0593 19.4362 29.6553 19.0322C29.4532 18.83 29.2827 18.6764 29.16 18.5712C29.0986 18.5186 29.0491 18.478 29.0134 18.4495C28.9956 18.4352 28.9813 18.424 28.9706 18.4157C28.9653 18.4116 28.9609 18.4082 28.9574 18.4056C28.9557 18.4043 28.9542 18.4032 28.953 18.4022C28.9524 18.4018 28.9518 18.4014 28.9513 18.401C28.9511 18.4008 28.9507 18.4006 28.9506 18.4005C28.9503 18.4002 28.95 18.4 28.5 19ZM31.75 28C31.75 30.8243 30.8106 32.9319 29.876 34.334C29.4077 35.0364 28.9407 35.5611 28.5947 35.9072C28.4218 36.08 28.2798 36.2076 28.1838 36.2899C28.1358 36.3311 28.0994 36.3608 28.0764 36.3792C28.0649 36.3884 28.0568 36.3947 28.0523 36.3982C28.0501 36.3999 28.0488 36.4009 28.0484 36.4012C28.0482 36.4014 28.0482 36.4014 28.0485 36.4012C28.0486 36.401 28.0488 36.4009 28.0491 36.4007C28.0492 36.4006 28.0494 36.4004 28.0495 36.4004C28.0497 36.4002 28.05 36.4 28.5 37C28.95 37.6 28.9503 37.5998 28.9506 37.5995C28.9507 37.5994 28.9511 37.5992 28.9513 37.599C28.9518 37.5986 28.9524 37.5982 28.953 37.5977C28.9542 37.5968 28.9557 37.5957 28.9574 37.5944C28.9609 37.5918 28.9653 37.5884 28.9706 37.5843C28.9813 37.576 28.9956 37.5648 29.0134 37.5505C29.0491 37.522 29.0986 37.4814 29.16 37.4288C29.2827 37.3236 29.4532 37.17 29.6553 36.9678C30.0593 36.5639 30.5923 35.9636 31.124 35.166C32.1894 33.5681 33.25 31.1757 33.25 28H31.75ZM28.5 37C28.95 36.4 28.9503 36.4002 28.9505 36.4004C28.9506 36.4004 28.9508 36.4006 28.9509 36.4007C28.9512 36.4009 28.9514 36.401 28.9515 36.4012C28.9518 36.4014 28.9518 36.4014 28.9516 36.4012C28.9512 36.4009 28.9499 36.3999 28.9477 36.3982C28.9432 36.3947 28.9351 36.3884 28.9236 36.3792C28.9006 36.3608 28.8642 36.3311 28.8162 36.2899C28.7202 36.2076 28.5782 36.08 28.4053 35.9072C28.0593 35.5611 27.5923 35.0364 27.124 34.334C26.1894 32.9319 25.25 30.8243 25.25 28H23.75C23.75 31.1757 24.8106 33.5681 25.876 35.166C26.4077 35.9636 26.9407 36.5639 27.3447 36.9678C27.5468 37.17 27.7173 37.3236 27.84 37.4288C27.9014 37.4814 27.9509 37.522 27.9866 37.5505C28.0044 37.5648 28.0187 37.576 28.0294 37.5843C28.0347 37.5884 28.0391 37.5918 28.0426 37.5944C28.0443 37.5957 28.0458 37.5968 28.047 37.5977C28.0476 37.5982 28.0482 37.5986 28.0487 37.599C28.0489 37.5992 28.0493 37.5994 28.0494 37.5995C28.0497 37.5998 28.05 37.6 28.5 37ZM25.25 28C25.25 25.1757 26.1894 23.0681 27.124 21.666C27.5923 20.9636 28.0593 20.4389 28.4053 20.0928C28.5782 19.92 28.7202 19.7924 28.8162 19.7101C28.8642 19.6689 28.9006 19.6392 28.9236 19.6208C28.9351 19.6116 28.9432 19.6053 28.9477 19.6018C28.9499 19.6001 28.9512 19.5991 28.9516 19.5988C28.9518 19.5986 28.9518 19.5986 28.9515 19.5988C28.9514 19.599 28.9512 19.5991 28.9509 19.5993C28.9508 19.5994 28.9506 19.5996 28.9505 19.5996C28.9503 19.5998 28.95 19.6 28.5 19C28.05 18.4 28.0497 18.4002 28.0494 18.4005C28.0493 18.4006 28.0489 18.4008 28.0487 18.401C28.0482 18.4014 28.0476 18.4018 28.047 18.4022C28.0458 18.4032 28.0443 18.4043 28.0426 18.4056C28.0391 18.4082 28.0347 18.4116 28.0294 18.4157C28.0187 18.424 28.0044 18.4352 27.9866 18.4495C27.9509 18.478 27.9014 18.5186 27.84 18.5712C27.7173 18.6764 27.5468 18.83 27.3447 19.0322C26.9407 19.4362 26.4077 20.0364 25.876 20.834C24.8106 22.4319 23.75 24.8243 23.75 28H25.25ZM37.5 27.25H19.5V28.75H37.5V27.25Z" fill="#7E74F1"/>
</svg>
