<svg width="57" height="56" viewBox="0 0 57 56" fill="none" xmlns="http://www.w3.org/2000/svg">
<rect x="0.5" width="56" height="56" rx="16" fill="#F5F3FE"/>
<path fill-rule="evenodd" clip-rule="evenodd" d="M30.0878 19.2517C29.4368 18.9197 28.5546 18.9146 27.8984 19.2457C25.6048 20.7373 23.1796 22.1591 21.1023 23.5848C20.7931 23.8344 20.5737 24.1971 20.5775 24.6241C20.5812 25.0493 20.8051 25.4072 21.1124 25.6527C23.1796 26.8985 25.6048 28.3204 27.8477 29.9529C28.4987 30.2849 29.3809 30.29 30.0371 29.9588C32.3952 28.3204 33.3653 27.8464 36.8332 25.6198C37.1424 25.3702 37.3618 25.0074 37.3581 24.5805C37.3543 24.1552 37.1305 23.7973 36.8232 23.5518C34.8204 22.1591 32.3952 20.7373 30.0878 19.2517ZM28.5661 20.509C28.7986 20.3917 29.1805 20.3928 29.4146 20.5122C31.4252 21.6851 33.3653 23.107 35.8238 24.5902C33.8503 25.9506 31.9102 27.3725 29.3694 28.6955C29.1369 28.8129 28.755 28.8118 28.521 28.6924C26.202 27.3725 24.1497 25.9506 22.1117 24.6144C24.1497 23.107 25.6048 22.1591 28.5661 20.509Z" fill="#7E74F1"/>
<path d="M37.8895 28.1029C38.1023 28.4359 37.9985 28.8745 37.6577 29.0824L31.7332 32.6966C30.9401 33.0598 29.9642 33.5337 29 33.5338C28.0358 33.5338 27.0599 33.0598 26.202 32.6969L20.3424 29.1236C20.0016 28.9157 19.8977 28.4772 20.1104 28.1441C20.3232 27.811 20.772 27.7095 21.1128 27.9174L26.9724 31.4907C27.5002 31.8126 28.2497 32.112 29 32.1119C29.7503 32.1119 30.4349 31.8125 30.9626 31.4905L36.8871 27.8763C37.2279 27.6684 37.6767 27.7698 37.8895 28.1029Z" fill="#7E74F1"/>
<path d="M37.8895 31.6619C38.1023 31.9949 37.9985 32.4334 37.6577 32.6414L32.5271 35.7722C30.9401 36.531 30.2178 36.9999 28.9676 37C27.7175 37.0001 26.0898 36.057 25.4079 35.7726L20.3424 32.6826C20.0015 32.4747 19.8977 32.0362 20.1105 31.7031C20.3233 31.3701 20.7721 31.2686 21.1129 31.4765L26.1785 34.5665C26.9284 35.0239 27.9314 35.4296 28.9676 35.4295C30.0039 35.4295 31.0067 35.0237 31.7564 34.5662L36.887 31.4354C37.2278 31.2275 37.6766 31.3288 37.8895 31.6619Z" fill="#7E74F1"/>
</svg>
