<svg width="56" height="56" viewBox="0 0 56 56" fill="none" xmlns="http://www.w3.org/2000/svg">
<rect width="56" height="56" rx="16" fill="#F5F3FE"/>
<path d="M26.5858 28.5857L27.1161 28.0554L27.1161 28.0554L26.5858 28.5857ZM29.4142 28.5857L28.8839 28.0554L28.8839 28.0554L29.4142 28.5857ZM20 21.75H36V20.25H20V21.75ZM36.25 22V34H37.75V22H36.25ZM36 34.25H20V35.75H36V34.25ZM19.75 34V22H18.25V34H19.75ZM20 34.25C19.8619 34.25 19.75 34.1381 19.75 34H18.25C18.25 34.9665 19.0335 35.75 20 35.75V34.25ZM36.25 34C36.25 34.1381 36.1381 34.25 36 34.25V35.75C36.9665 35.75 37.75 34.9665 37.75 34H36.25ZM20 20.25C19.517 20.25 19.0784 20.4467 18.7626 20.7626L19.8232 21.8232C19.8693 21.7772 19.9308 21.75 20 21.75V20.25ZM18.7626 20.7626C18.4467 21.0784 18.25 21.517 18.25 22H19.75C19.75 21.9308 19.7772 21.8693 19.8232 21.8232L18.7626 20.7626ZM36 21.75C36.0692 21.75 36.1307 21.7772 36.1768 21.8232L37.2374 20.7626C36.9216 20.4467 36.483 20.25 36 20.25V21.75ZM36.1768 21.8232C36.2228 21.8693 36.25 21.9308 36.25 22H37.75C37.75 21.517 37.5533 21.0784 37.2374 20.7626L36.1768 21.8232ZM26.0555 29.1161C27.1294 30.19 28.8706 30.19 29.9445 29.1161L28.8839 28.0554C28.3957 28.5436 27.6043 28.5436 27.1161 28.0554L26.0555 29.1161ZM18.7626 21.8232L26.0555 29.1161L27.1161 28.0554L19.8232 20.7626L18.7626 21.8232ZM29.9445 29.1161L37.2374 21.8232L36.1768 20.7626L28.8839 28.0554L29.9445 29.1161Z" fill="#7E74F1"/>
</svg>
