<svg width="56" height="56" viewBox="0 0 56 56" fill="none" xmlns="http://www.w3.org/2000/svg">
<rect width="56" height="56" rx="16" fill="#F5F3FE"/>
<path d="M36.9995 32.4767L36.2497 32.458C36.2495 32.4642 36.2495 32.4705 36.2495 32.4767H36.9995ZM36.9995 35.1864H36.2494L36.2495 35.1895L36.9995 35.1864ZM20.8082 19.0001V18.2501L20.8075 18.2501L20.8082 19.0001ZM23.5233 19.0001V19.7501L23.5307 19.7501L23.5233 19.0001ZM24.7214 19.4368L24.2329 20.006V20.006L24.7214 19.4368ZM24.4103 26.1448L23.8805 25.614C23.6411 25.8528 23.5912 26.2223 23.7586 26.5161L24.4103 26.1448ZM29.8405 31.5644L29.4704 32.2167C29.7636 32.383 30.1317 32.3334 30.3703 32.0952L29.8405 31.5644ZM36.5709 31.264L37.1427 30.7786V30.7786L36.5709 31.264ZM26.0429 24.1043L26.7763 24.261L26.0429 24.1043ZM31.8851 29.935L32.0413 30.6686L31.8851 29.935ZM35.0265 36.9929L35.0938 36.246C35.0712 36.2439 35.0486 36.2429 35.0259 36.2429L35.0265 36.9929ZM19.0071 20.9692L19.7571 20.9698C19.7571 20.947 19.7561 20.9242 19.7541 20.9016L19.0071 20.9692ZM30.6436 21.7639C30.2371 21.6846 29.8432 21.9498 29.7639 22.3564C29.6846 22.7629 29.9498 23.1568 30.3564 23.2361L30.6436 21.7639ZM32.7639 25.6436C32.8432 26.0502 33.2371 26.3154 33.6436 26.2361C34.0502 26.1568 34.3154 25.7629 34.2361 25.3564L32.7639 25.6436ZM31.0828 18.2546C30.6711 18.2089 30.3003 18.5055 30.2546 18.9172C30.2089 19.3289 30.5055 19.6997 30.9172 19.7454L31.0828 18.2546ZM35 21L35.53 20.4693L35 21ZM36.2547 25.0837C36.3009 25.4954 36.6721 25.7916 37.0837 25.7453C37.4954 25.6991 37.7916 25.3279 37.7453 24.9163L36.2547 25.0837ZM36.2495 32.4767V35.1864H37.7495V32.4767H36.2495ZM20.8082 19.7501H23.5233V18.2501H20.8082V19.7501ZM23.5307 19.7501C23.7883 19.7475 24.0379 19.8386 24.2329 20.006L25.2098 18.8677C24.7388 18.4634 24.1367 18.244 23.5159 18.2501L23.5307 19.7501ZM23.7586 26.5161C25.1139 28.8949 27.0873 30.8643 29.4704 32.2167L30.2107 30.9121C28.0622 29.6928 26.2834 27.9175 25.0619 25.7736L23.7586 26.5161ZM35.9992 31.7494C36.1671 31.9472 36.2561 32.1994 36.2497 32.458L37.7492 32.4953C37.7648 31.868 37.5488 31.257 37.1427 30.7786L35.9992 31.7494ZM24.2329 20.006C24.3555 20.1112 24.5166 20.3292 24.6837 20.6784C24.845 21.0156 24.9876 21.4236 25.0992 21.8528C25.3317 22.7471 25.3895 23.5729 25.3094 23.9475L26.7763 24.261C26.9306 23.5392 26.8011 22.4376 26.5509 21.4754C26.4212 20.9764 26.2487 20.474 26.0368 20.0311C25.8308 19.6004 25.5607 19.1688 25.2098 18.8677L24.2329 20.006ZM32.0413 30.6686C32.4183 30.5883 33.25 30.6466 34.1485 30.8801C34.58 30.9922 34.9898 31.1355 35.3278 31.2975C35.6782 31.4655 35.8954 31.6272 35.9992 31.7494L37.1427 30.7786C36.8418 30.4242 36.4084 30.1521 35.9763 29.9449C35.5318 29.7318 35.0271 29.5585 34.5258 29.4283C33.5589 29.177 32.4523 29.0475 31.729 29.2014L32.0413 30.6686ZM30.3703 32.0952C30.5321 31.9338 30.6946 31.7535 30.8397 31.5953C30.991 31.4303 31.1318 31.2798 31.2754 31.1446C31.5686 30.8684 31.8113 30.7175 32.0413 30.6686L31.729 29.2014C31.1012 29.335 30.6149 29.7061 30.247 30.0526C30.06 30.2287 29.8871 30.4147 29.7341 30.5815C29.5748 30.7552 29.4424 30.9021 29.3107 31.0335L30.3703 32.0952ZM25.3094 23.9475C25.2606 24.1761 25.1098 24.4179 24.833 24.7107C24.6975 24.854 24.5467 24.9945 24.3813 25.1456C24.2228 25.2904 24.0422 25.4526 23.8805 25.614L24.9401 26.6757C25.0717 26.5443 25.2189 26.4121 25.393 26.2531C25.5601 26.1005 25.7465 25.9279 25.923 25.7413C26.27 25.3742 26.6422 24.8885 26.7763 24.261L25.3094 23.9475ZM35.0259 36.2429C26.4163 36.2497 19.7504 29.523 19.7571 20.9698L18.2571 20.9686C18.2497 30.3469 25.5838 37.7503 35.027 37.7429L35.0259 36.2429ZM36.2495 35.1895C36.2519 35.7851 35.6976 36.3004 35.0938 36.246L34.9591 37.7399C36.4469 37.8741 37.7555 36.6595 37.7494 35.1834L36.2495 35.1895ZM19.7541 20.9016C19.7001 20.3051 20.21 19.7507 20.8089 19.7501L20.8075 18.2501C19.3372 18.2515 18.1258 19.5528 18.2602 21.0368L19.7541 20.9016ZM30.3564 23.2361C30.9878 23.3593 31.5701 23.6308 31.9697 24.0303L33.0303 22.9697C32.3677 22.3071 31.4866 21.9283 30.6436 21.7639L30.3564 23.2361ZM31.9697 24.0303C32.3692 24.4299 32.6407 25.0122 32.7639 25.6436L34.2361 25.3564C34.0717 24.5134 33.6929 23.6323 33.0303 22.9697L31.9697 24.0303ZM30.9172 19.7454C32.2556 19.8941 33.4818 20.5437 34.47 21.5307L35.53 20.4693C34.3376 19.2785 32.8075 18.4462 31.0828 18.2546L30.9172 19.7454ZM34.47 21.5307C35.4567 22.5162 36.1041 23.7437 36.2547 25.0837L37.7453 24.9163C37.5518 23.1937 36.7239 21.6617 35.53 20.4693L34.47 21.5307Z" fill="#7E74F1"/>
</svg>
