<svg width="24" height="24" viewBox="0 0 24 24" fill="none" xmlns="http://www.w3.org/2000/svg">
<path d="M17.5 8.99891C16.6047 8.99853 15.7233 9.21997 14.9345 9.64344C14.8626 9.45386 14.7346 9.29068 14.5677 9.17555C14.4008 9.06043 14.2027 8.99882 14 8.99891H9.99997C9.86863 8.99883 9.73856 9.02465 9.6172 9.07488C9.49584 9.1251 9.38557 9.19876 9.2927 9.29164C9.19982 9.38451 9.12617 9.49478 9.07594 9.61614C9.02571 9.7375 8.9999 9.86757 8.99997 9.99891V21.9989C8.99989 22.1303 9.02571 22.2603 9.07594 22.3817C9.12616 22.503 9.19982 22.6133 9.29269 22.7062C9.38557 22.7991 9.49584 22.8727 9.6172 22.9229C9.73856 22.9732 9.86863 22.999 9.99997 22.9989H14C14.1313 22.999 14.2614 22.9732 14.3827 22.9229C14.5041 22.8727 14.6144 22.7991 14.7072 22.7062C14.8001 22.6133 14.8738 22.503 14.924 22.3817C14.9742 22.2603 15 22.1303 15 21.9989V16.4989C15 16.2337 15.1053 15.9793 15.2929 15.7918C15.4804 15.6043 15.7348 15.4989 16 15.4989C16.2652 15.4989 16.5195 15.6043 16.7071 15.7918C16.8946 15.9793 17 16.2337 17 16.4989V21.9989C16.9999 22.1303 17.0257 22.2603 17.0759 22.3817C17.1262 22.503 17.1998 22.6133 17.2927 22.7062C17.3856 22.7991 17.4958 22.8727 17.6172 22.9229C17.7386 22.9732 17.8686 22.999 18 22.9989H22C22.1313 22.999 22.2614 22.9732 22.3827 22.9229C22.5041 22.8727 22.6144 22.7991 22.7072 22.7062C22.8001 22.6133 22.8738 22.503 22.924 22.3817C22.9742 22.2603 23 22.1303 23 21.9989V14.4989C22.9982 13.0408 22.4181 11.6429 21.3871 10.6118C20.356 9.58077 18.9581 9.00072 17.5 8.99891ZM21 20.9989H19V16.4989C19 15.7033 18.6839 14.9402 18.1213 14.3776C17.5587 13.815 16.7956 13.4989 16 13.4989C15.2043 13.4989 14.4413 13.815 13.8786 14.3776C13.316 14.9402 13 15.7033 13 16.4989V20.9989H11V10.9989H13V11.702C13.0001 11.9092 13.0645 12.1113 13.1844 12.2803C13.3043 12.4493 13.4737 12.5769 13.6692 12.6455C13.8647 12.7141 14.0767 12.7203 14.2759 12.6633C14.4751 12.6062 14.6517 12.4887 14.7812 12.327C15.23 11.7571 15.8456 11.3415 16.542 11.1383C17.2384 10.9351 17.9808 10.9544 18.6657 11.1936C19.3506 11.4328 19.9436 11.8799 20.3621 12.4725C20.7806 13.065 21.0036 13.7735 21 14.4989V20.9989ZM6.99997 8.99891H2.99997C2.86863 8.99883 2.73856 9.02465 2.6172 9.07488C2.49584 9.1251 2.38557 9.19876 2.2927 9.29164C2.19982 9.38451 2.12617 9.49478 2.07594 9.61614C2.02571 9.7375 1.9999 9.86757 1.99997 9.99891V21.9989C1.99989 22.1303 2.02571 22.2603 2.07594 22.3817C2.12616 22.503 2.19982 22.6133 2.29269 22.7062C2.38557 22.7991 2.49584 22.8727 2.6172 22.9229C2.73856 22.9732 2.86863 22.999 2.99997 22.9989H6.99997C7.13131 22.999 7.26138 22.9732 7.38274 22.9229C7.5041 22.8727 7.61437 22.7991 7.70725 22.7062C7.80012 22.6133 7.87378 22.503 7.92401 22.3817C7.97423 22.2603 8.00005 22.1303 7.99997 21.9989V9.99891C8.00005 9.86757 7.97423 9.7375 7.924 9.61614C7.87378 9.49478 7.80012 9.38451 7.70724 9.29164C7.61437 9.19876 7.5041 9.1251 7.38274 9.07488C7.26138 9.02465 7.13131 8.99883 6.99997 8.99891ZM5.99997 20.9989H3.99997V10.9989H5.99997V20.9989ZM5.01462 1.54191C4.57698 1.51571 4.13859 1.57881 3.7261 1.72735C3.31361 1.8759 2.93564 2.1068 2.61519 2.406C2.29473 2.70521 2.03849 3.06646 1.86203 3.46781C1.68557 3.86915 1.59259 4.3022 1.58875 4.7406C1.5849 5.17901 1.67027 5.61361 1.83966 6.01799C2.00904 6.42237 2.25891 6.78807 2.57407 7.09285C2.88922 7.39763 3.26308 7.63512 3.6729 7.79089C4.08272 7.94665 4.51994 8.01742 4.95797 7.99891H4.98629C5.42509 8.02497 5.86459 7.96129 6.27795 7.81176C6.6913 7.66223 7.06983 7.42998 7.39039 7.12922C7.71096 6.82845 7.96683 6.46548 8.14238 6.06249C8.31793 5.65949 8.40946 5.22494 8.41139 4.78537C8.41332 4.3458 8.3256 3.91046 8.15359 3.50594C7.98159 3.10142 7.7289 2.73622 7.41099 2.43266C7.09307 2.12909 6.7166 1.89353 6.30457 1.74038C5.89255 1.58723 5.45362 1.5197 5.01461 1.54191H5.01462ZM4.9863 5.99891H4.95797C4.78504 6.01991 4.60961 6.00369 4.44346 5.95134C4.27731 5.89899 4.12427 5.81171 3.99461 5.69537C3.86495 5.57903 3.76167 5.43631 3.69168 5.27678C3.6217 5.11726 3.58664 4.94461 3.58884 4.77042C3.58884 4.02432 4.14841 3.5419 5.01462 3.5419C5.18932 3.51861 5.36698 3.53303 5.53564 3.58418C5.70429 3.63534 5.86003 3.72204 5.99236 3.83845C6.12468 3.95486 6.23053 4.09828 6.30276 4.25904C6.37499 4.4198 6.41193 4.59418 6.4111 4.77042C6.4111 5.51651 5.85153 5.99891 4.9863 5.99891Z" fill="#232E35"/>
</svg>
