<svg width="25" height="48" viewBox="0 0 25 48" fill="none" xmlns="http://www.w3.org/2000/svg">
<path d="M3.35449 29L3.504 28.2651C3.20486 28.2042 2.89868 28.3307 2.72977 28.585C2.56086 28.8393 2.56291 29.1706 2.73497 29.4227L3.35449 29ZM11.3545 15L11.3742 14.2503C11.0683 14.2422 10.7881 14.4209 10.6664 14.7017C10.5446 14.9824 10.6057 15.309 10.8207 15.5268L11.3545 15ZM21.1045 24C21.1045 18.6857 16.7618 14.3919 11.3742 14.2503L11.3348 15.7497C15.9486 15.871 19.6045 19.5373 19.6045 24H21.1045ZM11.3545 33.75C16.8956 33.75 21.1045 29.3776 21.1045 24H19.6045C19.6045 28.5653 16.0511 32.25 11.3545 32.25V33.75ZM2.73497 29.4227C4.54749 32.0791 7.90248 33.75 11.3545 33.75V32.25C8.34871 32.25 5.48025 30.7847 3.97401 28.5773L2.73497 29.4227ZM3.20499 29.7349C7.54605 30.618 11.2664 28.3566 13.1176 25.1399C14.9712 21.9189 15.0076 17.6336 11.8883 14.4732L10.8207 15.5268C13.3843 18.1242 13.3967 21.6476 11.8175 24.3917C10.236 27.1399 7.11497 28.9996 3.504 28.2651L3.20499 29.7349Z" fill="#232E35"/>
</svg>
